<svg width="7" height="15" viewBox="0 0 7 15" fill="none" xmlns="http://www.w3.org/2000/svg">
<path d="M1.16129 5.95712e-05C1.31069 -0.000448724 1.4583 0.0325236 1.59328 0.0965524C1.72826 0.160581 1.84717 0.25404 1.94129 0.37006L6.77129 6.37006C6.91837 6.54899 6.99878 6.77344 6.99878 7.00506C6.99878 7.23669 6.91837 7.46113 6.77129 7.64006L1.77129 13.6401C1.60155 13.8443 1.35764 13.9727 1.09322 13.9971C0.828789 14.0215 0.565508 13.9398 0.361291 13.7701C0.157075 13.6003 0.0286508 13.3564 0.00427111 13.092C-0.0201086 12.8276 0.0615527 12.5643 0.231291 12.3601L4.70129 7.00006L0.381293 1.64006C0.25901 1.49327 0.181333 1.31453 0.157453 1.12499C0.133574 0.935437 0.16449 0.743012 0.246546 0.570485C0.328603 0.397957 0.458362 0.252546 0.620473 0.151455C0.782583 0.0503649 0.970259 -0.00217204 1.16129 5.95712e-05Z" fill="#616161"/>
</svg>
