<svg width="20" height="20" viewBox="0 0 20 20" fill="none" xmlns="http://www.w3.org/2000/svg">
<path d="M6 0.285714L2.85714 3.42857L1.61905 2.19048C1.23809 1.80952 0.666667 1.80952 0.285714 2.19048C-0.0952381 2.57143 -0.0952381 3.14286 0.285714 3.52381L2.19048 5.42857C2.38095 5.61905 2.57143 5.71429 2.85714 5.71429C3.14286 5.71429 3.33333 5.61905 3.52381 5.42857L7.33333 1.61905C7.71429 1.23809 7.71429 0.666667 7.33333 0.285714C6.95238 -0.0952381 6.38095 -0.0952381 6 0.285714ZM6 6.95238L2.85714 10.0952L1.61905 8.85714C1.23809 8.47619 0.666667 8.47619 0.285714 8.85714C-0.0952381 9.2381 -0.0952381 9.80952 0.285714 10.1905L2.19048 12.0952C2.38095 12.2857 2.57143 12.381 2.85714 12.381C3.14286 12.381 3.33333 12.2857 3.52381 12.0952L7.33333 8.28571C7.71429 7.90476 7.71429 7.33333 7.33333 6.95238C6.95238 6.57143 6.38095 6.57143 6 6.95238ZM6 13.619L2.85714 16.7619L1.61905 15.5238C1.23809 15.1429 0.666667 15.1429 0.285714 15.5238C-0.0952381 15.9048 -0.0952381 16.4762 0.285714 16.8571L2.19048 18.7619C2.38095 18.9524 2.57143 19.0476 2.85714 19.0476C3.14286 19.0476 3.33333 18.9524 3.52381 18.7619L7.33333 14.9524C7.71429 14.5714 7.71429 14 7.33333 13.619C6.95238 13.2381 6.38095 13.2381 6 13.619ZM11.4286 4.7619H19.0476C19.619 4.7619 20 4.38095 20 3.80952C20 3.2381 19.619 2.85714 19.0476 2.85714H11.4286C10.8571 2.85714 10.4762 3.2381 10.4762 3.80952C10.4762 4.38095 10.8571 4.7619 11.4286 4.7619ZM19.0476 9.52381H11.4286C10.8571 9.52381 10.4762 9.90476 10.4762 10.4762C10.4762 11.0476 10.8571 11.4286 11.4286 11.4286H19.0476C19.619 11.4286 20 11.0476 20 10.4762C20 9.90476 19.619 9.52381 19.0476 9.52381ZM19.0476 16.1905H11.4286C10.8571 16.1905 10.4762 16.5714 10.4762 17.1429C10.4762 17.7143 10.8571 18.0952 11.4286 18.0952H19.0476C19.619 18.0952 20 17.7143 20 17.1429C20 16.5714 19.619 16.1905 19.0476 16.1905Z" fill="#FAFAFA"/>
</svg>
