<svg width="20" height="22" viewBox="0 0 20 22" fill="none" xmlns="http://www.w3.org/2000/svg">
<path d="M4.16665 7.49996C4.16665 5.95286 4.78123 4.46913 5.87519 3.37517C6.96915 2.28121 8.45288 1.66663 9.99998 1.66663C11.5471 1.66663 13.0308 2.28121 14.1248 3.37517C15.2187 4.46913 15.8333 5.95286 15.8333 7.49996M18.1666 7.49996L15.8333 18C15.7242 18.6687 15.431 19.2684 15.0046 19.6948C14.5783 20.1211 14.0459 20.3471 13.5 20.3333H6.49998C5.95411 20.3471 5.42166 20.1211 4.99531 19.6948C4.56897 19.2684 4.27573 18.6687 4.16665 18L1.83331 7.49996H18.1666Z" stroke="white" strokeWidth="2" strokeLinecap="round" strokeLinejoin="round"/>
</svg>
