<svg width="34" height="26" viewBox="0 0 34 26" fill="none" xmlns="http://www.w3.org/2000/svg">
<path d="M28.6666 14.25C28.3055 14.25 28.0069 14.132 27.7708 13.8959C27.5347 13.6597 27.4166 13.3611 27.4166 13C27.4166 12.6389 27.5347 12.3403 27.7708 12.1042C28.0069 11.8681 28.3055 11.75 28.6666 11.75H32.4166C32.7778 11.75 33.0764 11.8681 33.3125 12.1042C33.5486 12.3403 33.6666 12.6389 33.6666 13C33.6666 13.3611 33.5486 13.6597 33.3125 13.8959C33.0764 14.132 32.7778 14.25 32.4166 14.25H28.6666ZM28.5 25.5834L25.4583 23.3334C25.1805 23.1111 25.0139 22.8334 24.9583 22.5C24.9028 22.1667 24.9861 21.8611 25.2083 21.5834C25.4305 21.3056 25.7083 21.1389 26.0416 21.0834C26.375 21.0278 26.6805 21.1111 26.9583 21.3334L30 23.5834C30.2778 23.8056 30.4444 24.0834 30.5 24.4167C30.5555 24.75 30.4722 25.0556 30.25 25.3334C30.0278 25.6111 29.75 25.7778 29.4166 25.8334C29.0833 25.8889 28.7778 25.8056 28.5 25.5834ZM27.0833 4.62502C26.8055 4.84725 26.5 4.93058 26.1666 4.87502C25.8333 4.81947 25.5555 4.6528 25.3333 4.37502C25.1111 4.09725 25.0278 3.79169 25.0833 3.45836C25.1389 3.12502 25.3055 2.84725 25.5833 2.62502L28.5 0.416691C28.7778 0.194468 29.0833 0.111136 29.4166 0.166691C29.75 0.222247 30.0278 0.388913 30.25 0.666691C30.4722 0.944468 30.5555 1.25002 30.5 1.58336C30.4444 1.91669 30.2778 2.19447 30 2.41669L27.0833 4.62502ZM5.74998 24.6667V18H2.83331C2.13887 18 1.54859 17.757 1.06248 17.2709C0.576369 16.7847 0.333313 16.1945 0.333313 15.5V10.5C0.333313 9.80558 0.576369 9.2153 1.06248 8.72919C1.54859 8.24308 2.13887 8.00002 2.83331 8.00002H10.3333L16.7916 4.12502C17.2083 3.87502 17.625 3.87502 18.0416 4.12502C18.4583 4.37502 18.6666 4.73614 18.6666 5.20836V20.7917C18.6666 21.2639 18.4583 21.625 18.0416 21.875C17.625 22.125 17.2083 22.125 16.7916 21.875L10.3333 18H8.24998V24.6667H5.74998ZM20.3333 18.5834V7.41669C21.0833 8.08336 21.6875 8.89586 22.1458 9.85419C22.6041 10.8125 22.8333 11.8611 22.8333 13C22.8333 14.1389 22.6041 15.1875 22.1458 16.1459C21.6875 17.1042 21.0833 17.9167 20.3333 18.5834ZM16.1666 18.5834V7.41669L11 10.5H2.83331V15.5H11L16.1666 18.5834Z" fill="white"/>
</svg>
