<svg width="34" height="28" viewBox="0 0 34 28" fill="none" xmlns="http://www.w3.org/2000/svg">
<path fill-rule="evenodd" clipRule="evenodd" d="M24.4371 0.523145C26.2051 -1.2937 30.6272 1.88737 24.4371 5.97581C18.2471 1.88737 22.6692 -1.2937 24.4371 0.523145ZM19.1247 8.50027C19.1247 10.191 18.4531 11.8125 17.2575 13.008C16.062 14.2035 14.4405 14.8752 12.7498 14.8752C11.0591 14.8752 9.4376 14.2035 8.24207 13.008C7.04654 11.8125 6.3749 10.191 6.3749 8.50027C6.3749 6.80954 7.04654 5.18806 8.24207 3.99254C9.4376 2.79701 11.0591 2.12537 12.7498 2.12537C14.4405 2.12537 16.062 2.79701 17.2575 3.99254C18.4531 5.18806 19.1247 6.80954 19.1247 8.50027V8.50027ZM0 25.5C0 27.625 2.12497 27.625 2.12497 27.625H23.3746C23.3746 27.625 25.4996 27.625 25.4996 25.5C25.4996 23.3751 23.3746 17.0001 12.7498 17.0001C2.12497 17.0001 0 23.3751 0 25.5ZM28.6871 8.30903C31.6344 5.28095 39.0038 10.5827 28.6871 17.3975C18.3725 10.5827 25.7397 5.28095 28.6871 8.31115V8.30903ZM31.8745 2.47599C33.0539 1.26476 36.0012 3.38548 31.8745 6.11181C27.7478 3.38548 30.6952 1.26476 31.8745 2.47812V2.47599Z" fill="white"/>
</svg>
