<svg width="28" height="29" viewBox="0 0 28 29" fill="none" xmlns="http://www.w3.org/2000/svg">
<path d="M26.75 24.9166V15.3782C26.75 14.6096 26.5936 13.849 26.2904 13.1428C25.9872 12.4365 25.5435 11.7993 24.9862 11.2699L15.9522 2.68914C15.4256 2.1889 14.727 1.90997 14.0007 1.90997C13.2744 1.90997 12.5758 2.1889 12.0492 2.68914L3.01375 11.2699C2.45651 11.7993 2.01278 12.4365 1.70957 13.1428C1.40636 13.849 1.25 14.6096 1.25 15.3782V24.9166C1.25 25.6681 1.54851 26.3888 2.07986 26.9201C2.61122 27.4515 3.33189 27.75 4.08333 27.75H23.9167C24.6681 27.75 25.3888 27.4515 25.9201 26.9201C26.4515 26.3888 26.75 25.6681 26.75 24.9166Z" stroke="white" strokeWidth="2" strokeLinecap="round" strokeLinejoin="round"/>
<path d="M9.75 19.25C9.75 18.4985 10.0485 17.7778 10.5799 17.2465C11.1112 16.7151 11.8319 16.4166 12.5833 16.4166H15.4167C16.1681 16.4166 16.8888 16.7151 17.4201 17.2465C17.9515 17.7778 18.25 18.4985 18.25 19.25V27.75H9.75V19.25Z" stroke="white" strokeWidth="2" strokeLinecap="round" strokeLinejoin="round"/>
</svg>
