<svg width="12" height="14" viewBox="0 0 12 14" fill="none" xmlns="http://www.w3.org/2000/svg">
<path d="M5.125 2.625H6.875C6.875 2.39294 6.78281 2.17038 6.61872 2.00628C6.45462 1.84219 6.23206 1.75 6 1.75C5.76794 1.75 5.54538 1.84219 5.38128 2.00628C5.21719 2.17038 5.125 2.39294 5.125 2.625ZM4.25 2.625C4.25 2.16087 4.43437 1.71575 4.76256 1.38756C5.09075 1.05937 5.53587 0.875 6 0.875C6.46413 0.875 6.90925 1.05937 7.23744 1.38756C7.56563 1.71575 7.75 2.16087 7.75 2.625H11.25C11.366 2.625 11.4773 2.67109 11.5594 2.75314C11.6414 2.83519 11.6875 2.94647 11.6875 3.0625C11.6875 3.17853 11.6414 3.28981 11.5594 3.37186C11.4773 3.45391 11.366 3.5 11.25 3.5H10.7565L9.70212 11.2333C9.63061 11.7573 9.37164 12.2377 8.97316 12.5855C8.57468 12.9333 8.06367 13.125 7.53475 13.125H4.46525C3.93633 13.125 3.42532 12.9333 3.02684 12.5855C2.62835 12.2377 2.36939 11.7573 2.29788 11.2333L1.2435 3.5H0.75C0.633968 3.5 0.522688 3.45391 0.440641 3.37186C0.358594 3.28981 0.3125 3.17853 0.3125 3.0625C0.3125 2.94647 0.358594 2.83519 0.440641 2.75314C0.522688 2.67109 0.633968 2.625 0.75 2.625H4.25ZM5.125 5.6875C5.125 5.57147 5.07891 5.46019 4.99686 5.37814C4.91481 5.29609 4.80353 5.25 4.6875 5.25C4.57147 5.25 4.46019 5.29609 4.37814 5.37814C4.29609 5.46019 4.25 5.57147 4.25 5.6875V10.0625C4.25 10.1785 4.29609 10.2898 4.37814 10.3719C4.46019 10.4539 4.57147 10.5 4.6875 10.5C4.80353 10.5 4.91481 10.4539 4.99686 10.3719C5.07891 10.2898 5.125 10.1785 5.125 10.0625V5.6875ZM7.3125 5.25C7.42853 5.25 7.53981 5.29609 7.62186 5.37814C7.70391 5.46019 7.75 5.57147 7.75 5.6875V10.0625C7.75 10.1785 7.70391 10.2898 7.62186 10.3719C7.53981 10.4539 7.42853 10.5 7.3125 10.5C7.19647 10.5 7.08519 10.4539 7.00314 10.3719C6.92109 10.2898 6.875 10.1785 6.875 10.0625V5.6875C6.875 5.57147 6.92109 5.46019 7.00314 5.37814C7.08519 5.29609 7.19647 5.25 7.3125 5.25ZM3.165 11.1151C3.20794 11.4295 3.36331 11.7177 3.60236 11.9263C3.84141 12.135 4.14795 12.25 4.46525 12.25H7.53475C7.8522 12.2502 8.15895 12.1353 8.39818 11.9266C8.63741 11.718 8.79291 11.4297 8.83588 11.1151L9.87362 3.5H2.12637L3.165 11.1151Z" fill="#B71C1C"/>
</svg>
