<svg width="10" height="10" viewBox="0 0 10 10" fill="none" xmlns="http://www.w3.org/2000/svg">
<path d="M0.5509 10C0.47477 9.99986 0.399502 9.98389 0.329879 9.95308C0.260257 9.92228 0.197805 9.87732 0.146494 9.82106C0.0942549 9.76529 0.0543931 9.6991 0.0295225 9.62683C0.00465195 9.55456 -0.00466561 9.47785 0.00218067 9.40173L0.136617 7.92308L6.34702 1.71318L8.28784 3.65398L2.07908 9.86333L0.600833 9.9978C0.584233 9.99933 0.56757 10.0001 0.5509 10ZM8.67523 3.26593L6.73496 1.32513L7.8988 0.160976C7.94976 0.109944 8.01027 0.06946 8.07689 0.0418386C8.1435 0.0142172 8.2149 0 8.28701 0C8.35913 0 8.43053 0.0142172 8.49714 0.0418386C8.56376 0.06946 8.62427 0.109944 8.67523 0.160976L9.83907 1.32513C9.89009 1.3761 9.93056 1.43664 9.95817 1.50327C9.98579 1.5699 10 1.64132 10 1.71345C10 1.78558 9.98579 1.857 9.95817 1.92363C9.93056 1.99027 9.89009 2.0508 9.83907 2.10178L8.67578 3.26538L8.67523 3.26593Z" fill="#616161"/>
</svg>
