<svg width="22" height="19" viewBox="0 0 22 19" fill="none" xmlns="http://www.w3.org/2000/svg">
<path d="M2.74922 17.75C2.53255 17.5333 2.42422 17.2833 2.42422 17C2.42422 16.7166 2.53255 16.4666 2.74922 16.25L8.79922 10.2C8.89922 10.1 9.00755 10.029 9.12422 9.98695C9.24089 9.94562 9.36589 9.92495 9.49922 9.92495C9.63255 9.92495 9.75755 9.94562 9.87422 9.98695C9.99089 10.029 10.0992 10.1 10.1992 10.2L13.4992 13.5L19.8992 6.29995C20.0826 6.08328 20.3202 5.97495 20.6122 5.97495C20.9036 5.97495 21.1492 6.07495 21.3492 6.27495C21.5326 6.45828 21.6286 6.67928 21.6372 6.93795C21.6452 7.19595 21.5576 7.42495 21.3742 7.62495L14.1992 15.7C14.0992 15.8166 13.9869 15.904 13.8622 15.962C13.7369 16.0206 13.6076 16.05 13.4742 16.05C13.3409 16.05 13.2119 16.025 13.0872 15.975C12.9619 15.925 12.8492 15.85 12.7492 15.75L9.49922 12.5L4.24922 17.75C4.03255 17.9666 3.78255 18.075 3.49922 18.075C3.21589 18.075 2.96589 17.9666 2.74922 17.75ZM2.99922 11.3C2.91589 11.3 2.83255 11.279 2.74922 11.237C2.66589 11.1956 2.59922 11.125 2.54922 11.025L2.04922 9.94995L0.974219 9.44995C0.874219 9.39995 0.803552 9.33328 0.762219 9.24995C0.720219 9.16662 0.699219 9.08328 0.699219 8.99995C0.699219 8.91662 0.720219 8.83328 0.762219 8.74995C0.803552 8.66662 0.874219 8.59995 0.974219 8.54995L2.04922 8.04995L2.54922 6.97495C2.59922 6.87495 2.66589 6.80395 2.74922 6.76195C2.83255 6.72062 2.91589 6.69995 2.99922 6.69995C3.08255 6.69995 3.16589 6.72062 3.24922 6.76195C3.33255 6.80395 3.39922 6.87495 3.44922 6.97495L3.94922 8.04995L5.02422 8.54995C5.20755 8.63329 5.29922 8.78329 5.29922 8.99995C5.29922 9.21662 5.20755 9.36662 5.02422 9.44995L3.94922 9.94995L3.44922 11.025C3.39922 11.125 3.33255 11.1956 3.24922 11.237C3.16589 11.279 3.08255 11.3 2.99922 11.3ZM13.9992 9.29995C13.9159 9.29995 13.8326 9.27895 13.7492 9.23695C13.6659 9.19562 13.5992 9.12495 13.5492 9.02495L13.0492 7.94995L11.9742 7.44995C11.8742 7.39995 11.8036 7.33328 11.7622 7.24995C11.7202 7.16662 11.6992 7.08328 11.6992 6.99995C11.6992 6.91662 11.7202 6.83328 11.7622 6.74995C11.8036 6.66662 11.8742 6.59995 11.9742 6.54995L13.0492 6.04995L13.5492 4.97495C13.5992 4.87495 13.6659 4.80395 13.7492 4.76195C13.8326 4.72062 13.9159 4.69995 13.9992 4.69995C14.0826 4.69995 14.1659 4.72062 14.2492 4.76195C14.3326 4.80395 14.3992 4.87495 14.4492 4.97495L14.9492 6.04995L16.0242 6.54995C16.1242 6.59995 16.1952 6.66662 16.2372 6.74995C16.2786 6.83328 16.2992 6.91662 16.2992 6.99995C16.2992 7.08328 16.2786 7.16662 16.2372 7.24995C16.1952 7.33328 16.1242 7.39995 16.0242 7.44995L14.9492 7.94995L14.4492 9.02495C14.3992 9.12495 14.3326 9.19562 14.2492 9.23695C14.1659 9.27895 14.0826 9.29995 13.9992 9.29995ZM7.49922 6.29995C7.41589 6.29995 7.33255 6.27495 7.24922 6.22495C7.16589 6.17495 7.09922 6.09995 7.04922 5.99995L6.39922 4.59995L4.99922 3.94995C4.89922 3.89995 4.82422 3.83328 4.77422 3.74995C4.72422 3.66662 4.69922 3.58328 4.69922 3.49995C4.69922 3.41662 4.72422 3.33328 4.77422 3.24995C4.82422 3.16662 4.89922 3.09995 4.99922 3.04995L6.39922 2.39995L7.04922 0.999951C7.09922 0.899951 7.16589 0.824951 7.24922 0.774951C7.33255 0.724951 7.41589 0.699951 7.49922 0.699951C7.58255 0.699951 7.66589 0.724951 7.74922 0.774951C7.83255 0.824951 7.89922 0.899951 7.94922 0.999951L8.59922 2.39995L9.99922 3.04995C10.0992 3.09995 10.1742 3.16662 10.2242 3.24995C10.2742 3.33328 10.2992 3.41662 10.2992 3.49995C10.2992 3.58328 10.2742 3.66662 10.2242 3.74995C10.1742 3.83328 10.0992 3.89995 9.99922 3.94995L8.59922 4.59995L7.94922 5.99995C7.89922 6.09995 7.83255 6.17495 7.74922 6.22495C7.66589 6.27495 7.58255 6.29995 7.49922 6.29995Z" fill="#FBBC04"/>
</svg>
