<svg width="18" height="14" viewBox="0 0 18 14" fill="none" xmlns="http://www.w3.org/2000/svg">
<path d="M15.9434 6.2215C16.2989 6.6865 16.2989 7.31425 15.9434 7.7785C14.8236 9.24025 12.1371 12.25 9.00062 12.25C5.86412 12.25 3.17762 9.24025 2.05787 7.7785C1.88491 7.55585 1.79102 7.28194 1.79102 7C1.79102 6.71806 1.88491 6.44415 2.05787 6.2215C3.17762 4.75975 5.86412 1.75 9.00062 1.75C12.1371 1.75 14.8236 4.75975 15.9434 6.2215V6.2215Z" stroke="#4285F4" strokeWidth="2" strokeLinecap="round" strokeLinejoin="round"/>
<path d="M9 9.25C10.2426 9.25 11.25 8.24264 11.25 7C11.25 5.75736 10.2426 4.75 9 4.75C7.75736 4.75 6.75 5.75736 6.75 7C6.75 8.24264 7.75736 9.25 9 9.25Z" stroke="#4285F4" strokeWidth="2" strokeLinecap="round" strokeLinejoin="round"/>
</svg>
