<svg width="20" height="20" viewBox="0 0 20 20" fill="none" xmlns="http://www.w3.org/2000/svg">
<g clip-path="url(#clip0_278_442)">
<path d="M17.5 0H2.5C1.12125 0 0 1.12125 0 2.5V17.5C0 18.8787 1.12125 20 2.5 20H17.5C18.8787 20 20 18.8787 20 17.5V2.5C20 1.12125 18.8787 0 17.5 0Z" fill="#1976D2"/>
<path fill-rule="evenodd" clipRule="evenodd" d="M16.875 10H13.75V7.5C13.75 6.81 14.31 6.875 15 6.875H16.25V3.75H13.75C12.7554 3.75 11.8016 4.14509 11.0983 4.84835C10.3951 5.55161 10 6.50544 10 7.5V10H7.5V13.125H10V20H13.75V13.125H15.625L16.875 10Z" fill="#FAFAFA"/>
</g>
<defs>
<clipPath id="clip0_278_442">
<rect width="20" height="20" fill="white"/>
</clipPath>
</defs>
</svg>
