<svg width="18" height="17" viewBox="0 0 18 17" fill="none" xmlns="http://www.w3.org/2000/svg">
<path d="M17.5645 3.30456C17.2852 2.6579 16.8825 2.0719 16.379 1.57936C15.875 1.08536 15.2808 0.692783 14.6288 0.42298C13.9526 0.1421 13.2274 -0.00167058 12.4952 1.46452e-05C11.468 1.46452e-05 10.4658 0.281297 9.59485 0.812608C9.38649 0.939706 9.18855 1.07931 9.00103 1.23141C8.81351 1.07931 8.61557 0.939706 8.40721 0.812608C7.53628 0.281297 6.53408 1.46452e-05 5.50688 1.46452e-05C4.76721 1.46452e-05 4.05046 0.141698 3.3733 0.42298C2.71906 0.693844 2.12941 1.08347 1.6231 1.57936C1.11887 2.07134 0.716078 2.65748 0.43755 3.30456C0.147934 3.97755 0 4.69222 0 5.42772C0 6.12155 0.141683 6.84455 0.422965 7.58005C0.658409 8.1947 0.995947 8.83228 1.42725 9.4761C2.11066 10.495 3.05035 11.5576 4.21715 12.6348C6.1507 14.4204 8.06551 15.6539 8.14677 15.7039L8.64057 16.0206C8.85935 16.1602 9.14063 16.1602 9.35941 16.0206L9.85321 15.7039C9.93447 15.6518 11.8472 14.4204 13.7828 12.6348C14.9496 11.5576 15.8893 10.495 16.5727 9.4761C17.004 8.83228 17.3437 8.1947 17.577 7.58005C17.8583 6.84455 18 6.12155 18 5.42772C18.0021 4.69222 17.8541 3.97755 17.5645 3.30456Z" fill="#B71C1C"/>
</svg>
