<svg width="20" height="26" viewBox="0 0 20 26" fill="none" xmlns="http://www.w3.org/2000/svg">
<path d="M8.71875 14.4688L6.25 12C6.0625 11.8125 5.83333 11.7188 5.5625 11.7188C5.29167 11.7188 5.0625 11.8125 4.875 12C4.6875 12.1875 4.59375 12.4167 4.59375 12.6875C4.59375 12.9583 4.6875 13.1875 4.875 13.375L7.96875 16.4688C8.15625 16.6563 8.38021 16.75 8.64062 16.75C8.90104 16.75 9.125 16.6563 9.3125 16.4688L15.0938 10.6875C15.2604 10.5208 15.3438 10.3021 15.3438 10.0313C15.3438 9.76042 15.2604 9.54167 15.0938 9.375C14.9271 9.20833 14.7135 9.125 14.4531 9.125C14.1927 9.125 13.9792 9.20833 13.8125 9.375L8.71875 14.4688ZM10 25.4062C9.91667 25.4062 9.83854 25.401 9.76562 25.3906C9.69271 25.3802 9.625 25.3646 9.5625 25.3438C6.77083 24.5104 4.47917 22.7969 2.6875 20.2031C0.895833 17.6094 0 14.7604 0 11.6563V5.53125C0 5.13542 0.114583 4.77604 0.34375 4.45313C0.572917 4.13021 0.864583 3.89583 1.21875 3.75L9.34375 0.71875C9.57292 0.635417 9.79167 0.59375 10 0.59375C10.2083 0.59375 10.4271 0.635417 10.6562 0.71875L18.7812 3.75C19.1354 3.89583 19.4271 4.13021 19.6562 4.45313C19.8854 4.77604 20 5.13542 20 5.53125V11.6563C20 14.7604 19.1042 17.6094 17.3125 20.2031C15.5208 22.7969 13.2292 24.5104 10.4375 25.3438L10 25.4062ZM10 23.5312C12.3958 22.7396 14.349 21.2448 15.8594 19.0469C17.3698 16.849 18.125 14.3854 18.125 11.6563V5.53125L10 2.46875L1.875 5.53125V11.6563C1.875 14.3854 2.63021 16.849 4.14062 19.0469C5.65104 21.2448 7.60417 22.7396 10 23.5312Z" fill="#B71C1C"/>
</svg>
