<svg width="22" height="22" viewBox="0 0 22 22" fill="none" xmlns="http://www.w3.org/2000/svg">
<path d="M19.3333 1H2.66667C2.22464 1 1.80072 1.17559 1.48816 1.48816C1.17559 1.80072 1 2.22464 1 2.66667V19.3333C1 19.7754 1.17559 20.1993 1.48816 20.5118C1.80072 20.8244 2.22464 21 2.66667 21H19.3333C19.7754 21 20.1993 20.8244 20.5118 20.5118C20.8244 20.1993 21 19.7754 21 19.3333V2.66667C21 2.22464 20.8244 1.80072 20.5118 1.48816C20.1993 1.17559 19.7754 1 19.3333 1Z" stroke="#FAFAFA" strokeWidth="2" strokeLinecap="round" strokeLinejoin="round"/>
<path d="M9.33335 14.8889L12.1111 17.1111L16.5556 11.5556M5.44446 6H16.5556M5.44446 10.4444H9.8889" stroke="#FAFAFA" strokeWidth="2" strokeLinecap="round" strokeLinejoin="round"/>
</svg>
