<svg width="32" height="24" viewBox="0 0 32 24" fill="none" xmlns="http://www.w3.org/2000/svg">
<path d="M23 18C22.7348 18 22.4804 18.1054 22.2929 18.2929C22.1054 18.4804 22 18.7348 22 19C22 19.2652 22.1054 19.5196 22.2929 19.7071C22.4804 19.8946 22.7348 20 23 20H27C27.2652 20 27.5196 19.8946 27.7071 19.7071C27.8946 19.5196 28 19.2652 28 19C28 18.7348 27.8946 18.4804 27.7071 18.2929C27.5196 18.1054 27.2652 18 27 18H23ZM0 5.5C0 4.04131 0.579463 2.64236 1.61091 1.61091C2.64236 0.579462 4.04131 0 5.5 0H26.5C27.9587 0 29.3576 0.579462 30.3891 1.61091C31.4205 2.64236 32 4.04131 32 5.5V18.5C32 19.9587 31.4205 21.3576 30.3891 22.3891C29.3576 23.4205 27.9587 24 26.5 24H5.5C4.04131 24 2.64236 23.4205 1.61091 22.3891C0.579463 21.3576 0 19.9587 0 18.5V5.5ZM5.5 2C4.57174 2 3.6815 2.36875 3.02513 3.02513C2.36875 3.6815 2 4.57174 2 5.5V8H30V5.5C30 4.57174 29.6313 3.6815 28.9749 3.02513C28.3185 2.36875 27.4283 2 26.5 2H5.5ZM30 10H2V18.5C2 20.432 3.568 22 5.5 22H26.5C27.4283 22 28.3185 21.6313 28.9749 20.9749C29.6313 20.3185 30 19.4283 30 18.5V10Z" fill="white"/>
</svg>
