<svg width="16" height="16" viewBox="0 0 16 16" fill="none" xmlns="http://www.w3.org/2000/svg">
<path d="M3.5 7C2.53333 7 1.70833 6.65833 1.025 5.975C0.341667 5.29167 0 4.46667 0 3.5C0 2.53333 0.341667 1.70833 1.025 1.025C1.70833 0.341667 2.53333 0 3.5 0C4.46667 0 5.29167 0.341667 5.975 1.025C6.65833 1.70833 7 2.53333 7 3.5C7 4.46667 6.65833 5.29167 5.975 5.975C5.29167 6.65833 4.46667 7 3.5 7ZM3.5 5C3.91667 5 4.27067 4.854 4.562 4.562C4.854 4.27067 5 3.91667 5 3.5C5 3.08333 4.854 2.72933 4.562 2.438C4.27067 2.146 3.91667 2 3.5 2C3.08333 2 2.72933 2.146 2.438 2.438C2.146 2.72933 2 3.08333 2 3.5C2 3.91667 2.146 4.27067 2.438 4.562C2.72933 4.854 3.08333 5 3.5 5ZM12.5 16C11.5333 16 10.7083 15.6583 10.025 14.975C9.34167 14.2917 9 13.4667 9 12.5C9 11.5333 9.34167 10.7083 10.025 10.025C10.7083 9.34167 11.5333 9 12.5 9C13.4667 9 14.2917 9.34167 14.975 10.025C15.6583 10.7083 16 11.5333 16 12.5C16 13.4667 15.6583 14.2917 14.975 14.975C14.2917 15.6583 13.4667 16 12.5 16ZM12.5 14C12.9167 14 13.2707 13.854 13.562 13.562C13.854 13.2707 14 12.9167 14 12.5C14 12.0833 13.854 11.7293 13.562 11.438C13.2707 11.146 12.9167 11 12.5 11C12.0833 11 11.7293 11.146 11.438 11.438C11.146 11.7293 11 12.0833 11 12.5C11 12.9167 11.146 13.2707 11.438 13.562C11.7293 13.854 12.0833 14 12.5 14ZM0.7 15.3C0.516666 15.1167 0.425 14.8833 0.425 14.6C0.425 14.3167 0.516666 14.0833 0.7 13.9L13.9 0.7C14.0833 0.516666 14.3167 0.425 14.6 0.425C14.8833 0.425 15.1167 0.516666 15.3 0.7C15.4833 0.883333 15.575 1.11667 15.575 1.4C15.575 1.68333 15.4833 1.91667 15.3 2.1L2.1 15.3C1.91667 15.4833 1.68333 15.575 1.4 15.575C1.11667 15.575 0.883333 15.4833 0.7 15.3Z" fill="#4285F4"/>
</svg>
