<svg width="13" height="9" viewBox="0 0 13 9" fill="none" xmlns="http://www.w3.org/2000/svg">
<path d="M4.38179 9C4.29872 9 4.22258 8.98655 4.15335 8.95964C4.08413 8.93274 4.01491 8.88565 3.94569 8.81839L0.186901 5.16592C0.0623002 5.04484 0 4.89686 0 4.72197C0 4.54709 0.0623002 4.3991 0.186901 4.27803C0.311502 4.15695 0.456869 4.09641 0.623003 4.09641C0.789137 4.09641 0.934504 4.15695 1.05911 4.27803L4.38179 7.50673L11.9201 0.181614C12.0447 0.060538 12.1936 0 12.3666 0C12.5397 0 12.6885 0.060538 12.8131 0.181614C12.9377 0.302691 13 0.447309 13 0.615471C13 0.783632 12.9377 0.928251 12.8131 1.04933L4.81789 8.81839C4.74867 8.88565 4.67945 8.93274 4.61022 8.95964C4.541 8.98655 4.46486 9 4.38179 9Z" fill="#1B5E20"/>
</svg>
