<svg width="12" height="16" viewBox="0 0 12 16" fill="none" xmlns="http://www.w3.org/2000/svg">
<path d="M7.30218 1.01125H7.30493H7.30218ZM7.30218 1.01125L6.17395 6.93901L10.2612 6.95276L4.6977 14.9887L5.82595 8.46725L1.73895 8.453L7.30218 1.01125ZM7.30295 0.0112617C7.27595 0.0112617 7.24897 0.0122461 7.22247 0.0142305C7.04597 0.0284961 6.92895 0.0874961 6.79022 0.180746C6.71209 0.23283 6.64166 0.295608 6.58097 0.367246C6.56274 0.388747 6.54555 0.411106 6.52945 0.434246L0.926201 7.85C0.704951 8.15325 0.672451 8.55351 0.842451 8.88801C1.0122 9.22251 1.35545 9.43451 1.7317 9.43726L4.6182 9.45826L3.7107 14.805C3.62445 15.2645 3.86945 15.7225 4.3007 15.907C4.42603 15.9609 4.56102 15.9886 4.69744 15.9885C5.01169 15.9885 5.26994 15.8415 5.4637 15.576L11.0739 7.54C11.2952 7.23673 11.3275 6.83598 11.1577 6.50198C10.9879 6.16748 10.6447 5.95546 10.2684 5.95273L7.38195 5.94773L8.2797 1.24648C8.29873 1.16951 8.3083 1.09051 8.30822 1.01123C8.30822 0.47023 7.87745 0.0292305 7.33845 0.0117305C7.32647 0.0112305 7.3147 0.0112305 7.30297 0.0112305L7.30295 0.0112617Z" fill="#B71C1C"/>
</svg>
