<svg width="22" height="15" viewBox="0 0 22 15" fill="none" xmlns="http://www.w3.org/2000/svg">
<path d="M9.11138 14.9807C4.92159 14.9059 3.49057 14.8385 2.61098 14.6626C2.01587 14.5457 1.49873 14.2862 1.11955 13.9098C0.826486 13.6249 0.593424 13.1903 0.412608 12.5873C0.257506 12.0849 0.197098 11.6669 0.110975 10.6459C-0.0208614 8.34157 -0.05229 6.45763 0.110975 4.3526C0.245669 3.19014 0.310975 1.81016 1.20567 1.00508C1.62812 0.628289 2.11955 0.385812 2.67138 0.285573C3.53342 0.126695 7.20608 0.00109863 11.0081 0.00109863C14.8016 0.00109863 18.4824 0.126695 19.3453 0.285573C20.0346 0.411169 20.6812 0.787562 21.0608 1.27291C21.8771 2.51937 21.8914 4.06931 21.9742 5.28169C22.0085 5.85936 22.0085 9.13953 21.9742 9.71719C21.8453 11.6332 21.7416 12.3111 21.4485 13.014C21.2673 13.4577 21.1126 13.6919 20.8449 13.9514C20.4249 14.3508 19.8896 14.6164 19.3102 14.7129C15.6844 14.9776 12.6057 15.035 9.11138 14.9807ZM14.6636 7.28173C12.6465 6.23536 10.7151 5.26505 8.74077 4.26068V10.2695C10.8183 9.1732 13.0085 8.16883 14.6722 7.27341L14.6636 7.28173Z" fill="#CD201F"/>
</svg>
